solid charlotteadapter
facet normal 0.0 0.0 1.0
  outer loop
    vertex 179.50717289944347 122.78198484133189 5.489085677422209
    vertex 179.81637332800744 124.0769037564608 5.489085677422205
    vertex 179.7826398960336 124.33313461111226 5.489085677422205
  endloop
endfacet
facet normal 0.0 0.0 1.0
  outer loop
    vertex 179.81637332800744 124.0769037564608 5.489085677422205
    vertex 179.50717289944347 122.78198484133189 5.489085677422209
    vertex 179.915274746287 123.83813461111231 5.489085677422205
  endloop
endfacet
facet normal 0.0 0.0 1.0
  outer loop
    vertex 179.915274746287 123.83813461111231 5.489085677422205
    vertex 179.50717289944347 122.78198484133189 5.489085677422209
    vertex 180.6739557799985 122.5964215454065 5.489085677422209
  endloop
endfacet
facet normal 0.0 0.0 1.0
  outer loop
    vertex 179.915274746287 123.83813461111231 5.489085677422205
    vertex 180.6739557799985 122.5964215454065 5.489085677422209
    vertex 180.07260418265895 123.63309889773763 5.489085677422205
  endloop
endfacet
facet normal 0.0 0.0 1.0
  outer loop
    vertex 180.07260418265895 123.63309889773763 5.489085677422205
    vertex 180.6739557799985 122.5964215454065 5.489085677422209
    vertex 180.27763989603363 123.47576946136569 5.489085677422205
  endloop
endfacet
facet normal 0.0 0.0 1.0
  outer loop
    vertex 180.27763989603363 123.47576946136569 5.489085677422205
    vertex 180.6739557799985 122.5964215454065 5.489085677422209
    vertex 180.51640904138208 123.37686804308608 5.489085677422205
  endloop
endfacet
facet normal 0.0 0.0 1.0
  outer loop
    vertex 180.51640904138208 123.37686804308608 5.489085677422205
    vertex 180.6739557799985 122.5964215454065 5.489085677422209
    vertex 180.77263989603355 123.34313461111225 5.489085677422205
  endloop
endfacet
facet normal 0.0 0.0 1.0
  outer loop
    vertex 180.77263989603355 123.34313461111225 5.489085677422205
    vertex 180.6739557799985 122.5964215454065 5.489085677422209
    vertex 181.8547954769487 122.55855814278216 5.489085677422209
  endloop
endfacet
facet normal 0.0 0.0 1.0
  outer loop
    vertex 180.77263989603355 123.34313461111225 5.489085677422205
    vertex 181.8547954769487 122.55855814278216 5.489085677422209
    vertex 181.0288707506851 123.37686804308608 5.489085677422205
  endloop
endfacet
facet normal 0.0 0.0 1.0
  outer loop
    vertex 181.0288707506851 123.37686804308608 5.489085677422205
    vertex 181.8547954769487 122.55855814278216 5.489085677422209
    vertex 181.26763989603361 123.47576946136569 5.489085677422205
  endloop
endfacet
facet normal 0.0 0.0 1.0
  outer loop
    vertex 181.26763989603361 123.47576946136569 5.489085677422205
    vertex 181.8547954769487 122.55855814278216 5.489085677422209
    vertex 181.4726756094083 123.63309889773757 5.489085677422205
  endloop
endfacet
facet normal 0.0 0.0 1.0
  outer loop
    vertex 181.4726756094083 123.63309889773757 5.489085677422205
    vertex 181.8547954769487 122.55855814278216 5.489085677422209
    vertex 181.6300050457802 123.83813461111231 5.489085677422205
  endloop
endfacet
facet normal 0.0 0.0 1.0
  outer loop
    vertex 181.6300050457802 123.83813461111231 5.489085677422205
    vertex 181.8547954769487 122.55855814278216 5.489085677422209
    vertex 181.72890646405978 124.0769037564608 5.489085677422205
  endloop
endfacet
facet normal 0.0 0.0 1.0
  outer loop
    vertex 181.72890646405978 124.0769037564608 5.489085677422205
    vertex 181.8547954769487 122.55855814278216 5.489085677422209
    vertex 181.7626398960336 124.33313461111226 5.489085677422205
  endloop
endfacet
facet normal 0.0 0.0 1.0
  outer loop
    vertex 172.19863380462496 131.08256328828145 5.489085677422209
    vertex 172.27421118032157 133.43958244737217 5.489085677422209
    vertex 172.16227695442078 132.26345033054872 5.489085677422209
  endloop
endfacet
facet normal 0.0 0.0 1.0
  outer loop
    vertex 172.27421118032157 133.43958244737217 5.489085677422209
    vertex 172.19863380462496 131.08256328828145 5.489085677422209
    vertex 172.38270836168712 129.91554461465464 5.489085677422209
  endloop
endfacet
facet normal 0.0 0.0 1.0
  outer loop
    vertex 172.27421118032157 133.43958244737217 5.489085677422209
    vertex 172.38270836168712 129.91554461465464 5.489085677422209
    vertex 172.53267121271836 134.5924113326822 5.489085677422209
  endloop
endfacet
facet normal 0.0 0.0 1.0
  outer loop
    vertex 172.53267121271836 134.5924113326822 5.489085677422209
    vertex 172.38270836168712 129.91554461465464 5.489085677422209
    vertex 172.7115976598823 128.78079889129444 5.489085677422209
  endloop
endfacet
facet normal 0.0 0.0 1.0
  outer loop
    vertex 172.53267121271836 134.5924113326822 5.489085677422209
    vertex 172.7115976598823 128.78079889129444 5.489085677422209
    vertex 172.9335809825033 135.7037561862908 5.489085677422209
  endloop
endfacet
facet normal 0.0 0.0 1.0
  outer loop
    vertex 172.9335809825033 135.7037561862908 5.489085677422209
    vertex 172.7115976598823 128.78079889129444 5.489085677422209
    vertex 173.18011491850874 127.69622173612245 5.489085677422209
  endloop
endfacet
facet normal 0.0 0.0 1.0
  outer loop
    vertex 172.9335809825033 135.7037561862908 5.489085677422209
    vertex 173.18011491850874 127.69622173612245 5.489085677422209
    vertex 173.47061790311554 136.75609043597132 5.489085677422209
  endloop
endfacet
facet normal 0.0 0.0 1.0
  outer loop
    vertex 173.47061790311554 136.75609043597132 5.489085677422209
    vertex 173.18011491850874 127.69622173612245 5.489085677422209
    vertex 173.78087134051898 126.67891757877098 5.489085677422209
  endloop
endfacet
facet normal 0.0 0.0 1.0
  outer loop
    vertex 173.47061790311554 136.75609043597132 5.489085677422209
    vertex 173.78087134051898 126.67891757877098 5.489085677422209
    vertex 174.13531258150678 137.73281814197247 5.489085677422209
  endloop
endfacet
facet normal 0.0 0.0 1.0
  outer loop
    vertex 174.13531258150678 137.73281814197247 5.489085677422209
    vertex 173.78087134051898 126.67891757877098 5.489085677422209
    vertex 174.5043926382638 125.74492991350924 5.489085677422209
  endloop
endfacet
facet normal 0.0 0.0 1.0
  outer loop
    vertex 174.13531258150678 137.73281814197247 5.489085677422209
    vertex 174.5043926382638 125.74492991350924 5.489085677422209
    vertex 174.9171823855289 138.61853572490145 5.489085677422209
  endloop
endfacet
facet normal 0.0 0.0 1.0
  outer loop
    vertex 174.9171823855289 138.61853572490145 5.489085677422209
    vertex 174.5043926382638 125.74492991350924 5.489085677422209
    vertex 175.33926844866713 124.90898828375575 5.489085677422209
  endloop
endfacet
facet normal 0.0 0.0 1.0
  outer loop
    vertex 174.9171823855289 138.61853572490145 5.489085677422209
    vertex 175.33926844866713 124.90898828375575 5.489085677422209
    vertex 175.80389676130656 139.39927488937374 5.489085677422209
  endloop
endfacet
facet normal 0.0 0.0 1.0
  outer loop
    vertex 175.80389676130656 139.39927488937374 5.489085677422209
    vertex 175.33926844866713 124.90898828375575 5.489085677422209
    vertex 176.27233228146827 124.18427598837893 5.489085677422209
  endloop
endfacet
facet normal 0.0 0.0 1.0
  outer loop
    vertex 175.80389676130656 139.39927488937374 5.489085677422209
    vertex 176.27233228146827 124.18427598837893 5.489085677422209
    vertex 176.781471693436 140.06272291237462 5.489085677422209
  endloop
endfacet
facet normal 0.0 0.0 1.0
  outer loop
    vertex 176.781471693436 140.06272291237462 5.489085677422209
    vertex 176.27233228146827 124.18427598837893 5.489085677422209
    vertex 177.2888691626384 123.58222217319913 5.489085677422209
  endloop
endfacet
facet normal 0.0 0.0 1.0
  outer loop
    vertex 176.781471693436 140.06272291237462 5.489085677422209
    vertex 177.2888691626384 123.58222217319913 5.489085677422209
    vertex 177.83449024126264 140.59841682225647 5.489085677422209
  endloop
endfacet
facet normal 0.0 0.0 1.0
  outer loop
    vertex 177.83449024126264 140.59841682225647 5.489085677422209
    vertex 177.2888691626384 123.58222217319913 5.489085677422209
    vertex 178.37284769831152 123.11232158653122 5.489085677422209
  endloop
endfacet
facet normal 0.0 0.0 1.0
  outer loop
    vertex 177.83449024126264 140.59841682225647 5.489085677422209
    vertex 178.37284769831152 123.11232158653122 5.489085677422209
    vertex 178.94634567324448 140.9979084060527 5.489085677422209
  endloop
endfacet
facet normal 0.0 0.0 1.0
  outer loop
    vertex 178.94634567324448 140.9979084060527 5.489085677422209
    vertex 178.37284769831152 123.11232158653122 5.489085677422209
    vertex 179.50717289944347 122.78198484133189 5.489085677422209
  endloop
endfacet
facet normal 0.0 0.0 1.0
  outer loop
    vertex 178.94634567324448 140.9979084060527 5.489085677422209
    vertex 179.50717289944347 122.78198484133189 5.489085677422209
    vertex 180.09950336502885 141.25489744284198 5.489085677422209
  endloop
endfacet
facet normal 0.0 0.0 1.0
  outer loop
    vertex 180.09950336502885 141.25489744284198 5.489085677422209
    vertex 179.50717289944347 122.78198484133189 5.489085677422209
    vertex 179.7826398960336 124.33313461111226 5.489085677422205
  endloop
endfacet
facet normal 0.0 0.0 1.0
  outer loop
    vertex 180.09950336502885 141.25489744284198 5.489085677422209
    vertex 179.7826398960336 124.33313461111226 5.489085677422205
    vertex 179.81637332800744 124.5893654657638 5.489085677422205
  endloop
endfacet
facet normal 0.0 0.0 1.0
  outer loop
    vertex 180.09950336502885 141.25489744284198 5.489085677422209
    vertex 179.81637332800744 124.5893654657638 5.489085677422205
    vertex 179.915274746287 124.82813461111232 5.489085677422205
  endloop
endfacet
facet normal 0.0 0.0 1.0
  outer loop
    vertex 180.09950336502885 141.25489744284198 5.489085677422209
    vertex 179.915274746287 124.82813461111232 5.489085677422205
    vertex 180.07260418265895 125.03317032448697 5.489085677422205
  endloop
endfacet
facet normal 0.0 0.0 1.0
  outer loop
    vertex 180.09950336502885 141.25489744284198 5.489085677422209
    vertex 180.07260418265895 125.03317032448697 5.489085677422205
    vertex 180.27763989603363 125.19049976085884 5.489085677422205
  endloop
endfacet
facet normal 0.0 0.0 1.0
  outer loop
    vertex 180.09950336502885 141.25489744284198 5.489085677422209
    vertex 180.27763989603363 125.19049976085884 5.489085677422205
    vertex 181.27577733095356 141.36533106199636 5.489085677422209
  endloop
endfacet
facet normal 0.0 0.0 1.0
  outer loop
    vertex 181.27577733095356 141.36533106199636 5.489085677422209
    vertex 180.27763989603363 125.19049976085884 5.489085677422205
    vertex 180.51640904138208 125.28940117913844 5.489085677422205
  endloop
endfacet
facet normal 0.0 0.0 1.0
  outer loop
    vertex 181.27577733095356 141.36533106199636 5.489085677422209
    vertex 180.51640904138208 125.28940117913844 5.489085677422205
    vertex 180.77263989603355 125.32313461111225 5.489085677422205
  endloop
endfacet
facet normal 0.0 0.0 1.0
  outer loop
    vertex 181.27577733095356 141.36533106199636 5.489085677422209
    vertex 180.77263989603355 125.32313461111225 5.489085677422205
    vertex 181.02887075068512 125.28940117913844 5.489085677422205
  endloop
endfacet
facet normal 0.0 0.0 1.0
  outer loop
    vertex 181.27577733095356 141.36533106199636 5.489085677422209
    vertex 181.02887075068512 125.28940117913844 5.489085677422205
    vertex 181.26763989603361 125.19049976085884 5.489085677422205
  endloop
endfacet
facet normal 0.0 0.0 1.0
  outer loop
    vertex 181.27577733095356 141.36533106199636 5.489085677422209
    vertex 181.26763989603361 125.19049976085884 5.489085677422205
    vertex 181.4726756094083 125.03317032448697 5.489085677422205
  endloop
endfacet
facet normal 0.0 0.0 1.0
  outer loop
    vertex 181.27577733095356 141.36533106199636 5.489085677422209
    vertex 181.4726756094083 125.03317032448697 5.489085677422205
    vertex 182.4566170279037 141.3274676593719 5.489085677422209
  endloop
endfacet
facet normal 0.0 0.0 1.0
  outer loop
    vertex 182.4566170279037 141.3274676593719 5.489085677422209
    vertex 181.4726756094083 125.03317032448697 5.489085677422205
    vertex 181.6300050457802 124.82813461111232 5.489085677422205
  endloop
endfacet
facet normal 0.0 0.0 1.0
  outer loop
    vertex 182.4566170279037 141.3274676593719 5.489085677422209
    vertex 181.6300050457802 124.82813461111232 5.489085677422205
    vertex 181.72890646405978 124.58936546576379 5.489085677422205
  endloop
endfacet
facet normal 0.0 0.0 1.0
  outer loop
    vertex 182.4566170279037 141.3274676593719 5.489085677422209
    vertex 181.72890646405978 124.58936546576379 5.489085677422205
    vertex 181.7626398960336 124.33313461111226 5.489085677422205
  endloop
endfacet
facet normal 0.0 0.0 1.0
  outer loop
    vertex 182.4566170279037 141.3274676593719 5.489085677422209
    vertex 181.7626398960336 124.33313461111226 5.489085677422205
    vertex 181.8547954769487 122.55855814278216 5.489085677422209
  endloop
endfacet
facet normal 0.0 0.0 1.0
  outer loop
    vertex 182.4566170279037 141.3274676593719 5.489085677422209
    vertex 181.8547954769487 122.55855814278216 5.489085677422209
    vertex 183.03106944287347 122.66899176193657 5.489085677422209
  endloop
endfacet
facet normal 0.0 0.0 1.0
  outer loop
    vertex 182.4566170279037 141.3274676593719 5.489085677422209
    vertex 183.03106944287347 122.66899176193657 5.489085677422209
    vertex 183.62339990845885 141.14190436344666 5.489085677422209
  endloop
endfacet
facet normal 0.0 0.0 1.0
  outer loop
    vertex 183.62339990845885 141.14190436344666 5.489085677422209
    vertex 183.03106944287347 122.66899176193657 5.489085677422209
    vertex 184.18422713465773 122.92598079872576 5.489085677422209
  endloop
endfacet
facet normal 0.0 0.0 1.0
  outer loop
    vertex 183.62339990845885 141.14190436344666 5.489085677422209
    vertex 184.18422713465773 122.92598079872576 5.489085677422209
    vertex 184.7577251095906 140.81156761824724 5.489085677422209
  endloop
endfacet
facet normal 0.0 0.0 1.0
  outer loop
    vertex 184.7577251095906 140.81156761824724 5.489085677422209
    vertex 184.18422713465773 122.92598079872576 5.489085677422209
    vertex 185.2960825666398 123.32547238252201 5.489085677422209
  endloop
endfacet
facet normal 0.0 0.0 1.0
  outer loop
    vertex 184.7577251095906 140.81156761824724 5.489085677422209
    vertex 185.2960825666398 123.32547238252201 5.489085677422209
    vertex 185.84170364526415 140.3416670315793 5.489085677422209
  endloop
endfacet
facet normal 0.0 0.0 1.0
  outer loop
    vertex 185.84170364526415 140.3416670315793 5.489085677422209
    vertex 185.2960825666398 123.32547238252201 5.489085677422209
    vertex 186.3491011144662 123.86116629240392 5.489085677422209
  endloop
endfacet
facet normal 0.0 0.0 1.0
  outer loop
    vertex 185.84170364526415 140.3416670315793 5.489085677422209
    vertex 186.3491011144662 123.86116629240392 5.489085677422209
    vertex 186.85824052643403 139.7396132163995 5.489085677422209
  endloop
endfacet
facet normal 0.0 0.0 1.0
  outer loop
    vertex 186.85824052643403 139.7396132163995 5.489085677422209
    vertex 186.3491011144662 123.86116629240392 5.489085677422209
    vertex 187.32667604659565 124.52461431540475 5.489085677422209
  endloop
endfacet
facet normal 0.0 0.0 1.0
  outer loop
    vertex 186.85824052643403 139.7396132163995 5.489085677422209
    vertex 187.32667604659565 124.52461431540475 5.489085677422209
    vertex 187.79130435923514 139.0149009210227 5.489085677422209
  endloop
endfacet
facet normal 0.0 0.0 1.0
  outer loop
    vertex 187.79130435923514 139.0149009210227 5.489085677422209
    vertex 187.32667604659565 124.52461431540475 5.489085677422209
    vertex 188.21339042237335 125.30535347987706 5.489085677422209
  endloop
endfacet
facet normal 0.0 0.0 1.0
  outer loop
    vertex 187.79130435923514 139.0149009210227 5.489085677422209
    vertex 188.21339042237335 125.30535347987706 5.489085677422209
    vertex 188.62618016963842 138.17895929126925 5.489085677422209
  endloop
endfacet
facet normal 0.0 0.0 1.0
  outer loop
    vertex 188.62618016963842 138.17895929126925 5.489085677422209
    vertex 188.21339042237335 125.30535347987706 5.489085677422209
    vertex 188.99526022639552 126.19107106280605 5.489085677422209
  endloop
endfacet
facet normal 0.0 0.0 1.0
  outer loop
    vertex 188.62618016963842 138.17895929126925 5.489085677422209
    vertex 188.99526022639552 126.19107106280605 5.489085677422209
    vertex 189.34970146738328 137.24497162600755 5.489085677422209
  endloop
endfacet
facet normal 0.0 0.0 1.0
  outer loop
    vertex 189.34970146738328 137.24497162600755 5.489085677422209
    vertex 188.99526022639552 126.19107106280605 5.489085677422209
    vertex 189.6599549047867 127.16779876880712 5.489085677422209
  endloop
endfacet
facet normal 0.0 0.0 1.0
  outer loop
    vertex 189.34970146738328 137.24497162600755 5.489085677422209
    vertex 189.6599549047867 127.16779876880712 5.489085677422209
    vertex 189.95045788939387 136.227667468656 5.489085677422209
  endloop
endfacet
facet normal 0.0 0.0 1.0
  outer loop
    vertex 189.95045788939387 136.227667468656 5.489085677422209
    vertex 189.6599549047867 127.16779876880712 5.489085677422209
    vertex 190.19699182539895 128.22013301848773 5.489085677422209
  endloop
endfacet
facet normal 0.0 0.0 1.0
  outer loop
    vertex 189.95045788939387 136.227667468656 5.489085677422209
    vertex 190.19699182539895 128.22013301848773 5.489085677422209
    vertex 190.41897514802022 135.14309031348407 5.489085677422209
  endloop
endfacet
facet normal 0.0 0.0 1.0
  outer loop
    vertex 190.41897514802022 135.14309031348407 5.489085677422209
    vertex 190.19699182539895 128.22013301848773 5.489085677422209
    vertex 190.59790159518406 129.33147787209634 5.489085677422209
  endloop
endfacet
facet normal 0.0 0.0 1.0
  outer loop
    vertex 190.41897514802022 135.14309031348407 5.489085677422209
    vertex 190.59790159518406 129.33147787209634 5.489085677422209
    vertex 190.74786444621515 134.0083445901239 5.489085677422209
  endloop
endfacet
facet normal 0.0 0.0 1.0
  outer loop
    vertex 190.74786444621515 134.0083445901239 5.489085677422209
    vertex 190.59790159518406 129.33147787209634 5.489085677422209
    vertex 190.85636162758072 130.4843067574063 5.489085677422209
  endloop
endfacet
facet normal 0.0 0.0 1.0
  outer loop
    vertex 190.74786444621515 134.0083445901239 5.489085677422209
    vertex 190.85636162758072 130.4843067574063 5.489085677422209
    vertex 190.93193900327762 132.841325916497 5.489085677422209
  endloop
endfacet
facet normal 0.0 0.0 1.0
  outer loop
    vertex 190.93193900327762 132.841325916497 5.489085677422209
    vertex 190.85636162758072 130.4843067574063 5.489085677422209
    vertex 190.96829585348146 131.66043887422973 5.489085677422209
  endloop
endfacet
facet normal -0.7905458267401083 -0.6124028868512938 0.0
  outer loop
    vertex 173.78087134051898 126.67891757877098 5.489085677422209
    vertex 174.5043926382638 125.74492991350924 5.236121359493445
    vertex 174.5043926382638 125.74492991350924 5.489085677422209
  endloop
endfacet
facet normal -0.7905458267401083 -0.6124028868512938 0.0
  outer loop
    vertex 174.5043926382638 125.74492991350924 5.236121359493445
    vertex 173.78087134051898 126.67891757877098 5.489085677422209
    vertex 173.78087134051898 126.67891757877098 5.236121359493445
  endloop
endfacet
facet normal -0.7496890643183386 0.6617902287292355 0.0
  outer loop
    vertex 174.9171823855289 138.61853572490145 5.489085677422209
    vertex 174.13531258150678 137.73281814197247 5.236121359493445
    vertex 174.13531258150678 137.73281814197247 5.489085677422209
  endloop
endfacet
facet normal -0.7496890643183386 0.6617902287292355 0.0
  outer loop
    vertex 174.13531258150678 137.73281814197247 5.236121359493445
    vertex 174.9171823855289 138.61853572490145 5.489085677422209
    vertex 174.9171823855289 138.61853572490145 5.236121359493445
  endloop
endfacet
facet normal -0.8907167410904859 0.45455878293257534 0.0
  outer loop
    vertex 173.47061790311554 136.75609043597132 5.489085677422209
    vertex 172.9335809825033 135.7037561862908 5.236121359493445
    vertex 172.9335809825033 135.7037561862908 5.489085677422209
  endloop
endfacet
facet normal -0.8907167410904859 0.45455878293257534 0.0
  outer loop
    vertex 172.9335809825033 135.7037561862908 5.236121359493445
    vertex 173.47061790311554 136.75609043597132 5.489085677422209
    vertex 173.47061790311554 136.75609043597132 5.236121359493445
  endloop
endfacet
facet normal -0.9995263940174615 -0.030773164647962994 0.0
  outer loop
    vertex 172.16227695442078 132.26345033054872 5.489085677422209
    vertex 172.19863380462496 131.08256328828145 5.236121359493445
    vertex 172.19863380462496 131.08256328828145 5.489085677422209
  endloop
endfacet
facet normal -0.9995263940174615 -0.030773164647962994 0.0
  outer loop
    vertex 172.19863380462496 131.08256328828145 5.236121359493445
    vertex 172.16227695442078 132.26345033054872 5.489085677422209
    vertex 172.16227695442078 132.26345033054872 5.236121359493445
  endloop
endfacet
facet normal 0.09347322240045605 -0.9956217940031621 0.0
  outer loop
    vertex 183.03106944287347 122.66899176193657 5.489085677422209
    vertex 181.8547954769487 122.55855814278216 5.236121359493445
    vertex 183.03106944287347 122.66899176193657 5.236121359493445
  endloop
endfacet
facet normal 0.09347322240045605 -0.9956217940031621 0.0
  outer loop
    vertex 181.8547954769487 122.55855814278216 5.236121359493445
    vertex 183.03106944287347 122.66899176193657 5.489085677422209
    vertex 181.8547954769487 122.55855814278216 5.489085677422209
  endloop
endfacet
facet normal -0.9955017300888929 0.09474336594200765 0.0
  outer loop
    vertex 172.27421118032157 133.43958244737217 5.489085677422209
    vertex 172.16227695442078 132.26345033054872 5.236121359493445
    vertex 172.16227695442078 132.26345033054872 5.489085677422209
  endloop
endfacet
facet normal -0.9955017300888929 0.09474336594200765 0.0
  outer loop
    vertex 172.16227695442078 132.26345033054872 5.236121359493445
    vertex 172.27421118032157 133.43958244737217 5.489085677422209
    vertex 172.27421118032157 133.43958244737217 5.236121359493445
  endloop
endfacet
facet normal -0.39773324808204397 -0.9175010972037623 0.0
  outer loop
    vertex 178.37284769831152 123.11232158653122 5.489085677422209
    vertex 177.2888691626384 123.58222217319913 5.236121359493445
    vertex 178.37284769831152 123.11232158653122 5.236121359493445
  endloop
endfacet
facet normal -0.39773324808204397 -0.9175010972037623 0.0
  outer loop
    vertex 177.2888691626384 123.58222217319913 5.236121359493445
    vertex 178.37284769831152 123.11232158653122 5.489085677422209
    vertex 177.2888691626384 123.58222217319913 5.489085677422209
  endloop
endfacet
facet normal -0.7075577027183916 -0.7066555719187901 0.0
  outer loop
    vertex 174.5043926382638 125.74492991350924 5.489085677422209
    vertex 175.33926844866713 124.90898828375575 5.236121359493445
    vertex 175.33926844866713 124.90898828375575 5.489085677422209
  endloop
endfacet
facet normal -0.7075577027183916 -0.7066555719187901 0.0
  outer loop
    vertex 175.33926844866713 124.90898828375575 5.236121359493445
    vertex 174.5043926382638 125.74492991350924 5.489085677422209
    vertex 174.5043926382638 125.74492991350924 5.236121359493445
  endloop
endfacet
facet normal -0.5095903819349857 -0.8604171329299269 0.0
  outer loop
    vertex 177.2888691626384 123.58222217319913 5.489085677422209
    vertex 176.27233228146827 124.18427598837893 5.236121359493445
    vertex 177.2888691626384 123.58222217319913 5.236121359493445
  endloop
endfacet
facet normal -0.5095903819349857 -0.8604171329299269 0.0
  outer loop
    vertex 176.27233228146827 124.18427598837893 5.236121359493445
    vertex 177.2888691626384 123.58222217319913 5.489085677422209
    vertex 176.27233228146827 124.18427598837893 5.489085677422209
  endloop
endfacet
facet normal -0.15706448237602252 -0.9875883496558434 0.0
  outer loop
    vertex 180.6739557799985 122.5964215454065 5.489085677422209
    vertex 179.50717289944347 122.78198484133189 5.236121359493445
    vertex 180.6739557799985 122.5964215454065 5.236121359493445
  endloop
endfacet
facet normal -0.15706448237602252 -0.9875883496558434 0.0
  outer loop
    vertex 179.50717289944347 122.78198484133189 5.236121359493445
    vertex 180.6739557799985 122.5964215454065 5.489085677422209
    vertex 179.50717289944347 122.78198484133189 5.489085677422209
  endloop
endfacet
facet normal -0.27960362331237754 -0.9601155210861817 0.0
  outer loop
    vertex 179.50717289944347 122.78198484133189 5.489085677422209
    vertex 178.37284769831152 123.11232158653122 5.236121359493445
    vertex 179.50717289944347 122.78198484133189 5.236121359493445
  endloop
endfacet
facet normal -0.27960362331237754 -0.9601155210861817 0.0
  outer loop
    vertex 178.37284769831152 123.11232158653122 5.236121359493445
    vertex 179.50717289944347 122.78198484133189 5.489085677422209
    vertex 178.37284769831152 123.11232158653122 5.489085677422209
  endloop
endfacet
facet normal 0.8267218514327568 -0.5626108605098152 0.0
  outer loop
    vertex 189.6599549047867 127.16779876880712 5.236121359493445
    vertex 188.99526022639552 126.19107106280605 5.489085677422209
    vertex 188.99526022639552 126.19107106280605 5.236121359493445
  endloop
endfacet
facet normal 0.8267218514327568 -0.5626108605098152 0.0
  outer loop
    vertex 188.99526022639552 126.19107106280605 5.489085677422209
    vertex 189.6599549047867 127.16779876880712 5.236121359493445
    vertex 189.6599549047867 127.16779876880712 5.489085677422209
  endloop
endfacet
facet normal -0.9604714595049438 -0.2783784752390949 0.0
  outer loop
    vertex 172.38270836168712 129.91554461465464 5.489085677422209
    vertex 172.7115976598823 128.78079889129444 5.236121359493445
    vertex 172.7115976598823 128.78079889129444 5.489085677422209
  endloop
endfacet
facet normal -0.9604714595049438 -0.2783784752390949 0.0
  outer loop
    vertex 172.7115976598823 128.78079889129444 5.236121359493445
    vertex 172.38270836168712 129.91554461465464 5.489085677422209
    vertex 172.38270836168712 129.91554461465464 5.236121359493445
  endloop
endfacet
facet normal -0.8267218514327593 0.5626108605098118 0.0
  outer loop
    vertex 174.13531258150678 137.73281814197247 5.489085677422209
    vertex 173.47061790311554 136.75609043597132 5.236121359493445
    vertex 173.47061790311554 136.75609043597132 5.489085677422209
  endloop
endfacet
facet normal -0.8267218514327593 0.5626108605098118 0.0
  outer loop
    vertex 173.47061790311554 136.75609043597132 5.236121359493445
    vertex 174.13531258150678 137.73281814197247 5.489085677422209
    vertex 174.13531258150678 137.73281814197247 5.236121359493445
  endloop
endfacet
facet normal 0.8907167410905136 -0.45455878293252133 0.0
  outer loop
    vertex 190.19699182539895 128.22013301848773 5.236121359493445
    vertex 189.6599549047867 127.16779876880712 5.489085677422209
    vertex 189.6599549047867 127.16779876880712 5.236121359493445
  endloop
endfacet
facet normal 0.8907167410905136 -0.45455878293252133 0.0
  outer loop
    vertex 189.6599549047867 127.16779876880712 5.489085677422209
    vertex 190.19699182539895 128.22013301848773 5.236121359493445
    vertex 190.19699182539895 128.22013301848773 5.489085677422209
  endloop
endfacet
facet normal 0.9406644956527997 -0.3393380418082597 0.0
  outer loop
    vertex 190.59790159518406 129.33147787209634 5.236121359493445
    vertex 190.19699182539895 128.22013301848773 5.489085677422209
    vertex 190.19699182539895 128.22013301848773 5.236121359493445
  endloop
endfacet
facet normal 0.9406644956527997 -0.3393380418082597 0.0
  outer loop
    vertex 190.19699182539895 128.22013301848773 5.489085677422209
    vertex 190.59790159518406 129.33147787209634 5.236121359493445
    vertex 190.59790159518406 129.33147787209634 5.489085677422209
  endloop
endfacet
facet normal -0.6134109710504556 -0.789763876481406 0.0
  outer loop
    vertex 176.27233228146827 124.18427598837893 5.489085677422209
    vertex 175.33926844866713 124.90898828375575 5.236121359493445
    vertex 176.27233228146827 124.18427598837893 5.236121359493445
  endloop
endfacet
facet normal -0.6134109710504556 -0.789763876481406 0.0
  outer loop
    vertex 175.33926844866713 124.90898828375575 5.236121359493445
    vertex 176.27233228146827 124.18427598837893 5.489085677422209
    vertex 175.33926844866713 124.90898828375575 5.489085677422209
  endloop
endfacet
facet normal -0.03204834072675005 -0.9994863199947572 0.0
  outer loop
    vertex 181.8547954769487 122.55855814278216 5.489085677422209
    vertex 180.6739557799985 122.5964215454065 5.236121359493445
    vertex 181.8547954769487 122.55855814278216 5.236121359493445
  endloop
endfacet
facet normal -0.03204834072675005 -0.9994863199947572 0.0
  outer loop
    vertex 180.6739557799985 122.5964215454065 5.236121359493445
    vertex 181.8547954769487 122.55855814278216 5.489085677422209
    vertex 180.6739557799985 122.5964215454065 5.489085677422209
  endloop
endfacet
facet normal -0.9406644956528389 0.33933804180815114 0.0
  outer loop
    vertex 172.9335809825033 135.7037561862908 5.489085677422209
    vertex 172.53267121271836 134.5924113326822 5.236121359493445
    vertex 172.53267121271836 134.5924113326822 5.489085677422209
  endloop
endfacet
facet normal -0.9406644956528389 0.33933804180815114 0.0
  outer loop
    vertex 172.53267121271836 134.5924113326822 5.236121359493445
    vertex 172.9335809825033 135.7037561862908 5.489085677422209
    vertex 172.9335809825033 135.7037561862908 5.236121359493445
  endloop
endfacet
facet normal -0.9757774091929042 0.2187657370540093 0.0
  outer loop
    vertex 172.53267121271836 134.5924113326822 5.489085677422209
    vertex 172.27421118032157 133.43958244737217 5.236121359493445
    vertex 172.27421118032157 133.43958244737217 5.489085677422209
  endloop
endfacet
facet normal -0.9757774091929042 0.2187657370540093 0.0
  outer loop
    vertex 172.27421118032157 133.43958244737217 5.236121359493445
    vertex 172.53267121271836 134.5924113326822 5.489085677422209
    vertex 172.53267121271836 134.5924113326822 5.236121359493445
  endloop
endfacet
facet normal -0.8610665708249138 -0.5084922424263955 0.0
  outer loop
    vertex 173.18011491850874 127.69622173612245 5.489085677422209
    vertex 173.78087134051898 126.67891757877098 5.236121359493445
    vertex 173.78087134051898 126.67891757877098 5.489085677422209
  endloop
endfacet
facet normal -0.8610665708249138 -0.5084922424263955 0.0
  outer loop
    vertex 173.78087134051898 126.67891757877098 5.236121359493445
    vertex 173.18011491850874 127.69622173612245 5.489085677422209
    vertex 173.18011491850874 127.69622173612245 5.236121359493445
  endloop
endfacet
facet normal -0.9877879296242739 -0.15580438404804503 0.0
  outer loop
    vertex 172.19863380462496 131.08256328828145 5.489085677422209
    vertex 172.38270836168712 129.91554461465464 5.236121359493445
    vertex 172.38270836168712 129.91554461465464 5.489085677422209
  endloop
endfacet
facet normal -0.9877879296242739 -0.15580438404804503 0.0
  outer loop
    vertex 172.38270836168712 129.91554461465464 5.236121359493445
    vertex 172.19863380462496 131.08256328828145 5.489085677422209
    vertex 172.19863380462496 131.08256328828145 5.236121359493445
  endloop
endfacet
facet normal -0.9180077807114287 -0.39656237158015606 0.0
  outer loop
    vertex 172.7115976598823 128.78079889129444 5.489085677422209
    vertex 173.18011491850874 127.69622173612245 5.236121359493445
    vertex 173.18011491850874 127.69622173612245 5.489085677422209
  endloop
endfacet
facet normal -0.9180077807114287 -0.39656237158015606 0.0
  outer loop
    vertex 173.18011491850874 127.69622173612245 5.236121359493445
    vertex 172.7115976598823 128.78079889129444 5.489085677422209
    vertex 172.7115976598823 128.78079889129444 5.236121359493445
  endloop
endfacet
facet normal 0.975777409192917 -0.2187657370539513 0.0
  outer loop
    vertex 190.85636162758072 130.4843067574063 5.236121359493445
    vertex 190.59790159518406 129.33147787209634 5.489085677422209
    vertex 190.59790159518406 129.33147787209634 5.236121359493445
  endloop
endfacet
facet normal 0.975777409192917 -0.2187657370539513 0.0
  outer loop
    vertex 190.59790159518406 129.33147787209634 5.489085677422209
    vertex 190.85636162758072 130.4843067574063 5.236121359493445
    vertex 190.85636162758072 130.4843067574063 5.489085677422209
  endloop
endfacet
facet normal 0.7496890643183386 -0.6617902287292355 0.0
  outer loop
    vertex 188.99526022639552 126.19107106280605 5.236121359493445
    vertex 188.21339042237335 125.30535347987706 5.489085677422209
    vertex 188.21339042237335 125.30535347987706 5.236121359493445
  endloop
endfacet
facet normal 0.7496890643183386 -0.6617902287292355 0.0
  outer loop
    vertex 188.21339042237335 125.30535347987706 5.489085677422209
    vertex 188.99526022639552 126.19107106280605 5.236121359493445
    vertex 188.99526022639552 126.19107106280605 5.489085677422209
  endloop
endfacet
facet normal 0.27960362331237015 0.9601155210861838 0.0
  outer loop
    vertex 183.62339990845885 141.14190436344666 5.489085677422209
    vertex 184.7577251095906 140.81156761824724 5.236121359493445
    vertex 183.62339990845885 141.14190436344666 5.236121359493445
  endloop
endfacet
facet normal 0.27960362331237015 0.9601155210861838 0.0
  outer loop
    vertex 184.7577251095906 140.81156761824724 5.236121359493445
    vertex 183.62339990845885 141.14190436344666 5.489085677422209
    vertex 184.7577251095906 140.81156761824724 5.489085677422209
  endloop
endfacet
facet normal -0.3381376608430699 0.9410966593924224 0.0
  outer loop
    vertex 177.83449024126264 140.59841682225647 5.489085677422209
    vertex 178.94634567324448 140.9979084060527 5.236121359493445
    vertex 177.83449024126264 140.59841682225647 5.236121359493445
  endloop
endfacet
facet normal -0.3381376608430699 0.9410966593924224 0.0
  outer loop
    vertex 178.94634567324448 140.9979084060527 5.236121359493445
    vertex 177.83449024126264 140.59841682225647 5.489085677422209
    vertex 178.94634567324448 140.9979084060527 5.489085677422209
  endloop
endfacet
facet normal 0.032048340726758114 0.999486319994757 0.0
  outer loop
    vertex 181.27577733095356 141.36533106199636 5.489085677422209
    vertex 182.4566170279037 141.3274676593719 5.236121359493445
    vertex 181.27577733095356 141.36533106199636 5.236121359493445
  endloop
endfacet
facet normal 0.032048340726758114 0.999486319994757 0.0
  outer loop
    vertex 182.4566170279037 141.3274676593719 5.236121359493445
    vertex 181.27577733095356 141.36533106199636 5.489085677422209
    vertex 182.4566170279037 141.3274676593719 5.489085677422209
  endloop
endfacet
facet normal 0.7075577027184238 0.7066555719187577 0.0
  outer loop
    vertex 187.79130435923514 139.0149009210227 5.236121359493445
    vertex 188.62618016963842 138.17895929126925 5.489085677422209
    vertex 188.62618016963842 138.17895929126925 5.236121359493445
  endloop
endfacet
facet normal 0.7075577027184238 0.7066555719187577 0.0
  outer loop
    vertex 188.62618016963842 138.17895929126925 5.489085677422209
    vertex 187.79130435923514 139.0149009210227 5.236121359493445
    vertex 187.79130435923514 139.0149009210227 5.489085677422209
  endloop
endfacet
facet normal 0.338137660843036 -0.9410966593924346 0.0
  outer loop
    vertex 185.2960825666398 123.32547238252201 5.489085677422209
    vertex 184.18422713465773 122.92598079872576 5.236121359493445
    vertex 185.2960825666398 123.32547238252201 5.236121359493445
  endloop
endfacet
facet normal 0.338137660843036 -0.9410966593924346 0.0
  outer loop
    vertex 184.18422713465773 122.92598079872576 5.236121359493445
    vertex 185.2960825666398 123.32547238252201 5.489085677422209
    vertex 184.18422713465773 122.92598079872576 5.489085677422209
  endloop
endfacet
facet normal 0.7905458267400712 0.612402886851342 0.0
  outer loop
    vertex 188.62618016963842 138.17895929126925 5.236121359493445
    vertex 189.34970146738328 137.24497162600755 5.489085677422209
    vertex 189.34970146738328 137.24497162600755 5.236121359493445
  endloop
endfacet
facet normal 0.7905458267400712 0.612402886851342 0.0
  outer loop
    vertex 189.34970146738328 137.24497162600755 5.489085677422209
    vertex 188.62618016963842 138.17895929126925 5.236121359493445
    vertex 188.62618016963842 138.17895929126925 5.489085677422209
  endloop
endfacet
facet normal 0.8610665708248029 0.5084922424265829 0.0
  outer loop
    vertex 189.34970146738328 137.24497162600755 5.236121359493445
    vertex 189.95045788939387 136.227667468656 5.489085677422209
    vertex 189.95045788939387 136.227667468656 5.236121359493445
  endloop
endfacet
facet normal 0.8610665708248029 0.5084922424265829 0.0
  outer loop
    vertex 189.95045788939387 136.227667468656 5.489085677422209
    vertex 189.34970146738328 137.24497162600755 5.236121359493445
    vertex 189.34970146738328 137.24497162600755 5.489085677422209
  endloop
endfacet
facet normal 0.39773324808195665 0.9175010972038001 0.0
  outer loop
    vertex 184.7577251095906 140.81156761824724 5.489085677422209
    vertex 185.84170364526415 140.3416670315793 5.236121359493445
    vertex 184.7577251095906 140.81156761824724 5.236121359493445
  endloop
endfacet
facet normal 0.39773324808195665 0.9175010972038001 0.0
  outer loop
    vertex 185.84170364526415 140.3416670315793 5.236121359493445
    vertex 184.7577251095906 140.81156761824724 5.489085677422209
    vertex 185.84170364526415 140.3416670315793 5.489085677422209
  endloop
endfacet
facet normal -0.5615556664715741 0.8274389605606363 0.0
  outer loop
    vertex 175.80389676130656 139.39927488937374 5.489085677422209
    vertex 176.781471693436 140.06272291237462 5.236121359493445
    vertex 175.80389676130656 139.39927488937374 5.236121359493445
  endloop
endfacet
facet normal -0.5615556664715741 0.8274389605606363 0.0
  outer loop
    vertex 176.781471693436 140.06272291237462 5.236121359493445
    vertex 175.80389676130656 139.39927488937374 5.489085677422209
    vertex 176.781471693436 140.06272291237462 5.489085677422209
  endloop
endfacet
facet normal 0.4534220318087117 -0.8912959447178359 0.0
  outer loop
    vertex 186.3491011144662 123.86116629240392 5.489085677422209
    vertex 185.2960825666398 123.32547238252201 5.236121359493445
    vertex 186.3491011144662 123.86116629240392 5.236121359493445
  endloop
endfacet
facet normal 0.4534220318087117 -0.8912959447178359 0.0
  outer loop
    vertex 185.2960825666398 123.32547238252201 5.236121359493445
    vertex 186.3491011144662 123.86116629240392 5.489085677422209
    vertex 185.2960825666398 123.32547238252201 5.489085677422209
  endloop
endfacet
facet normal -0.21752065697225184 0.9760557175645047 0.0
  outer loop
    vertex 178.94634567324448 140.9979084060527 5.489085677422209
    vertex 180.09950336502885 141.25489744284198 5.236121359493445
    vertex 178.94634567324448 140.9979084060527 5.236121359493445
  endloop
endfacet
facet normal -0.21752065697225184 0.9760557175645047 0.0
  outer loop
    vertex 180.09950336502885 141.25489744284198 5.236121359493445
    vertex 178.94634567324448 140.9979084060527 5.489085677422209
    vertex 180.09950336502885 141.25489744284198 5.489085677422209
  endloop
endfacet
facet normal 0.9955017300888929 -0.09474336594200765 0.0
  outer loop
    vertex 190.96829585348146 131.66043887422973 5.236121359493445
    vertex 190.85636162758072 130.4843067574063 5.489085677422209
    vertex 190.85636162758072 130.4843067574063 5.236121359493445
  endloop
endfacet
facet normal 0.9955017300888929 -0.09474336594200765 0.0
  outer loop
    vertex 190.85636162758072 130.4843067574063 5.489085677422209
    vertex 190.96829585348146 131.66043887422973 5.236121359493445
    vertex 190.96829585348146 131.66043887422973 5.489085677422209
  endloop
endfacet
facet normal 0.1570644823760304 0.9875883496558421 0.0
  outer loop
    vertex 182.4566170279037 141.3274676593719 5.489085677422209
    vertex 183.62339990845885 141.14190436344666 5.236121359493445
    vertex 182.4566170279037 141.3274676593719 5.236121359493445
  endloop
endfacet
facet normal 0.1570644823760304 0.9875883496558421 0.0
  outer loop
    vertex 183.62339990845885 141.14190436344666 5.236121359493445
    vertex 182.4566170279037 141.3274676593719 5.489085677422209
    vertex 183.62339990845885 141.14190436344666 5.489085677422209
  endloop
endfacet
facet normal 0.5615556664715741 -0.8274389605606363 0.0
  outer loop
    vertex 187.32667604659565 124.52461431540475 5.489085677422209
    vertex 186.3491011144662 123.86116629240392 5.236121359493445
    vertex 187.32667604659565 124.52461431540475 5.236121359493445
  endloop
endfacet
facet normal 0.5615556664715741 -0.8274389605606363 0.0
  outer loop
    vertex 186.3491011144662 123.86116629240392 5.236121359493445
    vertex 187.32667604659565 124.52461431540475 5.489085677422209
    vertex 186.3491011144662 123.86116629240392 5.489085677422209
  endloop
endfacet
facet normal -0.6608332328169864 0.7505327697073931 0.0
  outer loop
    vertex 174.9171823855289 138.61853572490145 5.489085677422209
    vertex 175.80389676130656 139.39927488937374 5.236121359493445
    vertex 174.9171823855289 138.61853572490145 5.236121359493445
  endloop
endfacet
facet normal -0.6608332328169864 0.7505327697073931 0.0
  outer loop
    vertex 175.80389676130656 139.39927488937374 5.236121359493445
    vertex 174.9171823855289 138.61853572490145 5.489085677422209
    vertex 175.80389676130656 139.39927488937374 5.489085677422209
  endloop
endfacet
facet normal 0.9877879296242338 0.1558043840482989 0.0
  outer loop
    vertex 190.74786444621515 134.0083445901239 5.236121359493445
    vertex 190.93193900327762 132.841325916497 5.489085677422209
    vertex 190.93193900327762 132.841325916497 5.236121359493445
  endloop
endfacet
facet normal 0.9877879296242338 0.1558043840482989 0.0
  outer loop
    vertex 190.93193900327762 132.841325916497 5.489085677422209
    vertex 190.74786444621515 134.0083445901239 5.236121359493445
    vertex 190.74786444621515 134.0083445901239 5.489085677422209
  endloop
endfacet
facet normal 0.9995263940174692 0.03077316464770563 0.0
  outer loop
    vertex 190.93193900327762 132.841325916497 5.236121359493445
    vertex 190.96829585348146 131.66043887422973 5.489085677422209
    vertex 190.96829585348146 131.66043887422973 5.236121359493445
  endloop
endfacet
facet normal 0.9995263940174692 0.03077316464770563 0.0
  outer loop
    vertex 190.96829585348146 131.66043887422973 5.489085677422209
    vertex 190.93193900327762 132.841325916497 5.236121359493445
    vertex 190.93193900327762 132.841325916497 5.489085677422209
  endloop
endfacet
facet normal 0.6608332328169497 -0.7505327697074253 0.0
  outer loop
    vertex 188.21339042237335 125.30535347987706 5.489085677422209
    vertex 187.32667604659565 124.52461431540475 5.236121359493445
    vertex 188.21339042237335 125.30535347987706 5.236121359493445
  endloop
endfacet
facet normal 0.6608332328169497 -0.7505327697074253 0.0
  outer loop
    vertex 187.32667604659565 124.52461431540475 5.236121359493445
    vertex 188.21339042237335 125.30535347987706 5.489085677422209
    vertex 187.32667604659565 124.52461431540475 5.489085677422209
  endloop
endfacet
facet normal -0.09347322240047215 0.9956217940031606 0.0
  outer loop
    vertex 180.09950336502885 141.25489744284198 5.489085677422209
    vertex 181.27577733095356 141.36533106199636 5.236121359493445
    vertex 180.09950336502885 141.25489744284198 5.236121359493445
  endloop
endfacet
facet normal -0.09347322240047215 0.9956217940031606 0.0
  outer loop
    vertex 181.27577733095356 141.36533106199636 5.236121359493445
    vertex 180.09950336502885 141.25489744284198 5.489085677422209
    vertex 181.27577733095356 141.36533106199636 5.489085677422209
  endloop
endfacet
facet normal -0.45342203180865326 0.8912959447178659 0.0
  outer loop
    vertex 176.781471693436 140.06272291237462 5.489085677422209
    vertex 177.83449024126264 140.59841682225647 5.236121359493445
    vertex 176.781471693436 140.06272291237462 5.236121359493445
  endloop
endfacet
facet normal -0.45342203180865326 0.8912959447178659 0.0
  outer loop
    vertex 177.83449024126264 140.59841682225647 5.236121359493445
    vertex 176.781471693436 140.06272291237462 5.489085677422209
    vertex 177.83449024126264 140.59841682225647 5.489085677422209
  endloop
endfacet
facet normal 0.9604714595050151 0.2783784752388486 0.0
  outer loop
    vertex 190.41897514802022 135.14309031348407 5.236121359493445
    vertex 190.74786444621515 134.0083445901239 5.489085677422209
    vertex 190.74786444621515 134.0083445901239 5.236121359493445
  endloop
endfacet
facet normal 0.9604714595050151 0.2783784752388486 0.0
  outer loop
    vertex 190.74786444621515 134.0083445901239 5.489085677422209
    vertex 190.41897514802022 135.14309031348407 5.236121359493445
    vertex 190.41897514802022 135.14309031348407 5.489085677422209
  endloop
endfacet
facet normal 0.5095903819350985 0.86041713292986 0.0
  outer loop
    vertex 185.84170364526415 140.3416670315793 5.489085677422209
    vertex 186.85824052643403 139.7396132163995 5.236121359493445
    vertex 185.84170364526415 140.3416670315793 5.236121359493445
  endloop
endfacet
facet normal 0.5095903819350985 0.86041713292986 0.0
  outer loop
    vertex 186.85824052643403 139.7396132163995 5.236121359493445
    vertex 185.84170364526415 140.3416670315793 5.489085677422209
    vertex 186.85824052643403 139.7396132163995 5.489085677422209
  endloop
endfacet
facet normal 0.21752065697226555 -0.9760557175645015 0.0
  outer loop
    vertex 184.18422713465773 122.92598079872576 5.489085677422209
    vertex 183.03106944287347 122.66899176193657 5.236121359493445
    vertex 184.18422713465773 122.92598079872576 5.236121359493445
  endloop
endfacet
facet normal 0.21752065697226555 -0.9760557175645015 0.0
  outer loop
    vertex 183.03106944287347 122.66899176193657 5.236121359493445
    vertex 184.18422713465773 122.92598079872576 5.489085677422209
    vertex 183.03106944287347 122.66899176193657 5.489085677422209
  endloop
endfacet
facet normal 0.6134109710504556 0.789763876481406 0.0
  outer loop
    vertex 186.85824052643403 139.7396132163995 5.489085677422209
    vertex 187.79130435923514 139.0149009210227 5.236121359493445
    vertex 186.85824052643403 139.7396132163995 5.236121359493445
  endloop
endfacet
facet normal 0.6134109710504556 0.789763876481406 0.0
  outer loop
    vertex 187.79130435923514 139.0149009210227 5.236121359493445
    vertex 186.85824052643403 139.7396132163995 5.489085677422209
    vertex 187.79130435923514 139.0149009210227 5.489085677422209
  endloop
endfacet
facet normal 0.918007780711426 0.39656237158016205 0.0
  outer loop
    vertex 189.95045788939387 136.227667468656 5.236121359493445
    vertex 190.41897514802022 135.14309031348407 5.489085677422209
    vertex 190.41897514802022 135.14309031348407 5.236121359493445
  endloop
endfacet
facet normal 0.918007780711426 0.39656237158016205 0.0
  outer loop
    vertex 190.41897514802022 135.14309031348407 5.489085677422209
    vertex 189.95045788939387 136.227667468656 5.236121359493445
    vertex 189.95045788939387 136.227667468656 5.489085677422209
  endloop
endfacet
facet normal 0.6087614290087533 0.7933533402912101 0.0
  outer loop
    vertex 180.07260418265895 123.63309889773763 5.489085677422205
    vertex 180.27763989603363 123.47576946136569 5.236121359493441
    vertex 180.07260418265895 123.63309889773763 5.236121359493441
  endloop
endfacet
facet normal 0.6087614290087533 0.7933533402912101 0.0
  outer loop
    vertex 180.27763989603363 123.47576946136569 5.236121359493441
    vertex 180.07260418265895 123.63309889773763 5.489085677422205
    vertex 180.27763989603363 123.47576946136569 5.489085677422205
  endloop
endfacet
facet normal 0.9238795325112947 0.38268343236507063 0.0
  outer loop
    vertex 179.81637332800744 124.0769037564608 5.236121359493441
    vertex 179.915274746287 123.83813461111231 5.489085677422205
    vertex 179.915274746287 123.83813461111231 5.236121359493441
  endloop
endfacet
facet normal 0.9238795325112947 0.38268343236507063 0.0
  outer loop
    vertex 179.915274746287 123.83813461111231 5.489085677422205
    vertex 179.81637332800744 124.0769037564608 5.236121359493441
    vertex 179.81637332800744 124.0769037564608 5.489085677422205
  endloop
endfacet
facet normal -0.3826834323651011 -0.9238795325112821 0.0
  outer loop
    vertex 181.26763989603361 125.19049976085884 5.489085677422205
    vertex 181.02887075068512 125.28940117913844 5.236121359493441
    vertex 181.26763989603361 125.19049976085884 5.236121359493441
  endloop
endfacet
facet normal -0.3826834323651011 -0.9238795325112821 0.0
  outer loop
    vertex 181.02887075068512 125.28940117913844 5.236121359493441
    vertex 181.26763989603361 125.19049976085884 5.489085677422205
    vertex 181.02887075068512 125.28940117913844 5.489085677422205
  endloop
endfacet
facet normal 0.38268343236507063 -0.9238795325112947 0.0
  outer loop
    vertex 180.51640904138208 125.28940117913844 5.489085677422205
    vertex 180.27763989603363 125.19049976085884 5.236121359493441
    vertex 180.51640904138208 125.28940117913844 5.236121359493441
  endloop
endfacet
facet normal 0.38268343236507063 -0.9238795325112947 0.0
  outer loop
    vertex 180.27763989603363 125.19049976085884 5.236121359493441
    vertex 180.51640904138208 125.28940117913844 5.489085677422205
    vertex 180.27763989603363 125.19049976085884 5.489085677422205
  endloop
endfacet
facet normal 0.9914448613738072 0.13052619222007755 0.0
  outer loop
    vertex 179.7826398960336 124.33313461111226 5.236121359493441
    vertex 179.81637332800744 124.0769037564608 5.489085677422205
    vertex 179.81637332800744 124.0769037564608 5.236121359493441
  endloop
endfacet
facet normal 0.9914448613738072 0.13052619222007755 0.0
  outer loop
    vertex 179.81637332800744 124.0769037564608 5.489085677422205
    vertex 179.7826398960336 124.33313461111226 5.236121359493441
    vertex 179.7826398960336 124.33313461111226 5.489085677422205
  endloop
endfacet
facet normal 0.13052619222007755 -0.9914448613738072 0.0
  outer loop
    vertex 180.77263989603355 125.32313461111225 5.489085677422205
    vertex 180.51640904138208 125.28940117913844 5.236121359493441
    vertex 180.77263989603355 125.32313461111225 5.236121359493441
  endloop
endfacet
facet normal 0.13052619222007755 -0.9914448613738072 0.0
  outer loop
    vertex 180.51640904138208 125.28940117913844 5.236121359493441
    vertex 180.77263989603355 125.32313461111225 5.489085677422205
    vertex 180.51640904138208 125.28940117913844 5.489085677422205
  endloop
endfacet
facet normal 0.6087614290087014 -0.7933533402912498 9.189508109416434e-15
  outer loop
    vertex 180.27763989603363 125.19049976085884 5.489085677422205
    vertex 180.14017121885945 125.08501633486136 5.236121359493444
    vertex 180.27763989603363 125.19049976085884 5.236121359493441
  endloop
endfacet
facet normal 0.6087614290087014 -0.7933533402912498 9.189508109416434e-15
  outer loop
    vertex 180.14017121885945 125.08501633486136 5.236121359493444
    vertex 180.07260418265895 125.03317032448697 5.489085677422205
    vertex 180.07260418265895 125.03317032448697 5.236121359493441
  endloop
endfacet
facet normal 0.6087614290087014 -0.7933533402912498 9.189508109416434e-15
  outer loop
    vertex 180.07260418265895 125.03317032448697 5.489085677422205
    vertex 180.14017121885945 125.08501633486136 5.236121359493444
    vertex 180.27763989603363 125.19049976085884 5.489085677422205
  endloop
endfacet
facet normal 1.470775796520403e-17 1.2930160951916493e-16 -1.0
  outer loop
    vertex 172.27421118032157 133.43958244737217 5.236121359493445
    vertex 172.19863380462496 131.08256328828145 5.236121359493445
    vertex 172.16227695442078 132.26345033054872 5.236121359493445
  endloop
endfacet
facet normal 1.470775796520403e-17 1.2930160951916493e-16 -1.0
  outer loop
    vertex 172.19863380462496 131.08256328828145 5.236121359493445
    vertex 172.27421118032157 133.43958244737217 5.236121359493445
    vertex 172.38270836168712 129.91554461465464 5.236121359493445
  endloop
endfacet
facet normal 1.470775796520403e-17 1.2930160951916493e-16 -1.0
  outer loop
    vertex 172.38270836168712 129.91554461465464 5.236121359493445
    vertex 172.27421118032157 133.43958244737217 5.236121359493445
    vertex 172.53267121271836 134.5924113326822 5.236121359493445
  endloop
endfacet
facet normal 1.470775796520403e-17 1.2930160951916493e-16 -1.0
  outer loop
    vertex 172.38270836168712 129.91554461465464 5.236121359493445
    vertex 172.53267121271836 134.5924113326822 5.236121359493445
    vertex 172.7115976598823 128.78079889129444 5.236121359493445
  endloop
endfacet
facet normal 1.470775796520403e-17 1.2930160951916493e-16 -1.0
  outer loop
    vertex 172.7115976598823 128.78079889129444 5.236121359493445
    vertex 172.53267121271836 134.5924113326822 5.236121359493445
    vertex 172.9335809825033 135.7037561862908 5.236121359493445
  endloop
endfacet
facet normal 1.470775796520403e-17 1.2930160951916493e-16 -1.0
  outer loop
    vertex 172.7115976598823 128.78079889129444 5.236121359493445
    vertex 172.9335809825033 135.7037561862908 5.236121359493445
    vertex 173.18011491850874 127.69622173612245 5.236121359493445
  endloop
endfacet
facet normal 1.470775796520403e-17 1.2930160951916493e-16 -1.0
  outer loop
    vertex 173.18011491850874 127.69622173612245 5.236121359493445
    vertex 172.9335809825033 135.7037561862908 5.236121359493445
    vertex 173.47061790311554 136.75609043597132 5.236121359493445
  endloop
endfacet
facet normal 1.470775796520403e-17 1.2930160951916493e-16 -1.0
  outer loop
    vertex 173.18011491850874 127.69622173612245 5.236121359493445
    vertex 173.47061790311554 136.75609043597132 5.236121359493445
    vertex 173.78087134051898 126.67891757877098 5.236121359493445
  endloop
endfacet
facet normal 1.470775796520403e-17 1.2930160951916493e-16 -1.0
  outer loop
    vertex 173.78087134051898 126.67891757877098 5.236121359493445
    vertex 173.47061790311554 136.75609043597132 5.236121359493445
    vertex 174.13531258150678 137.73281814197247 5.236121359493445
  endloop
endfacet
facet normal 1.470775796520403e-17 1.2930160951916493e-16 -1.0
  outer loop
    vertex 173.78087134051898 126.67891757877098 5.236121359493445
    vertex 174.13531258150678 137.73281814197247 5.236121359493445
    vertex 174.5043926382638 125.74492991350924 5.236121359493445
  endloop
endfacet
facet normal 1.470775796520403e-17 1.2930160951916493e-16 -1.0
  outer loop
    vertex 174.5043926382638 125.74492991350924 5.236121359493445
    vertex 174.13531258150678 137.73281814197247 5.236121359493445
    vertex 174.9171823855289 138.61853572490145 5.236121359493445
  endloop
endfacet
facet normal 1.470775796520403e-17 1.2930160951916493e-16 -1.0
  outer loop
    vertex 174.5043926382638 125.74492991350924 5.236121359493445
    vertex 174.9171823855289 138.61853572490145 5.236121359493445
    vertex 175.33926844866713 124.90898828375575 5.236121359493445
  endloop
endfacet
facet normal 1.470775796520403e-17 1.2930160951916493e-16 -1.0
  outer loop
    vertex 175.33926844866713 124.90898828375575 5.236121359493445
    vertex 174.9171823855289 138.61853572490145 5.236121359493445
    vertex 175.80389676130656 139.39927488937374 5.236121359493445
  endloop
endfacet
facet normal 1.470775796520403e-17 1.2930160951916493e-16 -1.0
  outer loop
    vertex 175.33926844866713 124.90898828375575 5.236121359493445
    vertex 175.80389676130656 139.39927488937374 5.236121359493445
    vertex 176.27233228146827 124.18427598837893 5.236121359493445
  endloop
endfacet
facet normal 1.470775796520403e-17 1.2930160951916493e-16 -1.0
  outer loop
    vertex 176.27233228146827 124.18427598837893 5.236121359493445
    vertex 175.80389676130656 139.39927488937374 5.236121359493445
    vertex 176.781471693436 140.06272291237462 5.236121359493445
  endloop
endfacet
facet normal 1.470775796520403e-17 1.2930160951916493e-16 -1.0
  outer loop
    vertex 176.27233228146827 124.18427598837893 5.236121359493445
    vertex 176.781471693436 140.06272291237462 5.236121359493445
    vertex 177.2888691626384 123.58222217319913 5.236121359493445
  endloop
endfacet
facet normal 1.470775796520403e-17 1.2930160951916493e-16 -1.0
  outer loop
    vertex 177.2888691626384 123.58222217319913 5.236121359493445
    vertex 176.781471693436 140.06272291237462 5.236121359493445
    vertex 177.83449024126264 140.59841682225647 5.236121359493445
  endloop
endfacet
facet normal 1.470775796520403e-17 1.2930160951916493e-16 -1.0
  outer loop
    vertex 177.2888691626384 123.58222217319913 5.236121359493445
    vertex 177.83449024126264 140.59841682225647 5.236121359493445
    vertex 178.37284769831152 123.11232158653122 5.236121359493445
  endloop
endfacet
facet normal 1.470775796520403e-17 1.2930160951916493e-16 -1.0
  outer loop
    vertex 178.37284769831152 123.11232158653122 5.236121359493445
    vertex 177.83449024126264 140.59841682225647 5.236121359493445
    vertex 178.94634567324448 140.9979084060527 5.236121359493445
  endloop
endfacet
facet normal 1.470775796520403e-17 1.2930160951916493e-16 -1.0
  outer loop
    vertex 178.37284769831152 123.11232158653122 5.236121359493445
    vertex 178.94634567324448 140.9979084060527 5.236121359493445
    vertex 179.50717289944347 122.78198484133189 5.236121359493445
  endloop
endfacet
facet normal 1.470775796520403e-17 1.2930160951916493e-16 -1.0
  outer loop
    vertex 179.50717289944347 122.78198484133189 5.236121359493445
    vertex 178.94634567324448 140.9979084060527 5.236121359493445
    vertex 180.09950336502885 141.25489744284198 5.236121359493445
  endloop
endfacet
facet normal 1.470775796520403e-17 1.2930160951916493e-16 -1.0
  outer loop
    vertex 179.50717289944347 122.78198484133189 5.236121359493445
    vertex 180.09950336502885 141.25489744284198 5.236121359493445
    vertex 179.7826398960336 124.33313461111226 5.236121359493441
  endloop
endfacet
facet normal 1.470775796520403e-17 1.2930160951916493e-16 -1.0
  outer loop
    vertex 179.7826398960336 124.33313461111226 5.236121359493441
    vertex 180.09950336502885 141.25489744284198 5.236121359493445
    vertex 179.81637332800744 124.5893654657638 5.236121359493441
  endloop
endfacet
facet normal 1.470775796520403e-17 1.2930160951916493e-16 -1.0
  outer loop
    vertex 179.81637332800744 124.5893654657638 5.236121359493441
    vertex 180.09950336502885 141.25489744284198 5.236121359493445
    vertex 179.915274746287 124.82813461111232 5.236121359493441
  endloop
endfacet
facet normal 1.470775796520403e-17 1.2930160951916493e-16 -1.0
  outer loop
    vertex 179.915274746287 124.82813461111232 5.236121359493441
    vertex 180.09950336502885 141.25489744284198 5.236121359493445
    vertex 180.07260418265895 125.03317032448697 5.236121359493441
  endloop
endfacet
facet normal 1.470775796520403e-17 1.2930160951916493e-16 -1.0
  outer loop
    vertex 180.07260418265895 125.03317032448697 5.236121359493441
    vertex 180.09950336502885 141.25489744284198 5.236121359493445
    vertex 180.14017121885945 125.08501633486136 5.236121359493444
  endloop
endfacet
facet normal 1.470775796520403e-17 1.2930160951916493e-16 -1.0
  outer loop
    vertex 180.14017121885945 125.08501633486136 5.236121359493444
    vertex 180.09950336502885 141.25489744284198 5.236121359493445
    vertex 181.27577733095356 141.36533106199636 5.236121359493445
  endloop
endfacet
facet normal 1.470775796520403e-17 1.2930160951916493e-16 -1.0
  outer loop
    vertex 180.14017121885945 125.08501633486136 5.236121359493444
    vertex 181.27577733095356 141.36533106199636 5.236121359493445
    vertex 180.27763989603363 125.19049976085884 5.236121359493441
  endloop
endfacet
facet normal 1.470775796520403e-17 1.2930160951916493e-16 -1.0
  outer loop
    vertex 180.27763989603363 125.19049976085884 5.236121359493441
    vertex 181.27577733095356 141.36533106199636 5.236121359493445
    vertex 180.51640904138208 125.28940117913844 5.236121359493441
  endloop
endfacet
facet normal 1.470775796520403e-17 1.2930160951916493e-16 -1.0
  outer loop
    vertex 180.51640904138208 125.28940117913844 5.236121359493441
    vertex 181.27577733095356 141.36533106199636 5.236121359493445
    vertex 180.77263989603355 125.32313461111225 5.236121359493441
  endloop
endfacet
facet normal 1.470775796520403e-17 1.2930160951916493e-16 -1.0
  outer loop
    vertex 180.77263989603355 125.32313461111225 5.236121359493441
    vertex 181.27577733095356 141.36533106199636 5.236121359493445
    vertex 181.02887075068512 125.28940117913844 5.236121359493441
  endloop
endfacet
facet normal 1.470775796520403e-17 1.2930160951916493e-16 -1.0
  outer loop
    vertex 181.02887075068512 125.28940117913844 5.236121359493441
    vertex 181.27577733095356 141.36533106199636 5.236121359493445
    vertex 181.26763989603361 125.19049976085884 5.236121359493441
  endloop
endfacet
facet normal 1.470775796520403e-17 1.2930160951916493e-16 -1.0
  outer loop
    vertex 181.26763989603361 125.19049976085884 5.236121359493441
    vertex 181.27577733095356 141.36533106199636 5.236121359493445
    vertex 181.4726756094083 125.03317032448697 5.236121359493441
  endloop
endfacet
facet normal 1.470775796520403e-17 1.2930160951916493e-16 -1.0
  outer loop
    vertex 181.4726756094083 125.03317032448697 5.236121359493441
    vertex 181.27577733095356 141.36533106199636 5.236121359493445
    vertex 182.4566170279037 141.3274676593719 5.236121359493445
  endloop
endfacet
facet normal 1.470775796520403e-17 1.2930160951916493e-16 -1.0
  outer loop
    vertex 181.4726756094083 125.03317032448697 5.236121359493441
    vertex 182.4566170279037 141.3274676593719 5.236121359493445
    vertex 181.6300050457802 124.82813461111232 5.236121359493441
  endloop
endfacet
facet normal 1.470775796520403e-17 1.2930160951916493e-16 -1.0
  outer loop
    vertex 181.6300050457802 124.82813461111232 5.236121359493441
    vertex 182.4566170279037 141.3274676593719 5.236121359493445
    vertex 181.72890646405978 124.58936546576379 5.236121359493441
  endloop
endfacet
facet normal 1.470775796520403e-17 1.2930160951916493e-16 -1.0
  outer loop
    vertex 181.72890646405978 124.58936546576379 5.236121359493441
    vertex 182.4566170279037 141.3274676593719 5.236121359493445
    vertex 181.7626398960336 124.33313461111226 5.236121359493441
  endloop
endfacet
facet normal 1.470775796520403e-17 1.2930160951916493e-16 -1.0
  outer loop
    vertex 181.7626398960336 124.33313461111226 5.236121359493441
    vertex 182.4566170279037 141.3274676593719 5.236121359493445
    vertex 181.8547954769487 122.55855814278216 5.236121359493445
  endloop
endfacet
facet normal 1.470775796520403e-17 1.2930160951916493e-16 -1.0
  outer loop
    vertex 181.8547954769487 122.55855814278216 5.236121359493445
    vertex 182.4566170279037 141.3274676593719 5.236121359493445
    vertex 183.03106944287347 122.66899176193657 5.236121359493445
  endloop
endfacet
facet normal 1.470775796520403e-17 1.2930160951916493e-16 -1.0
  outer loop
    vertex 183.03106944287347 122.66899176193657 5.236121359493445
    vertex 182.4566170279037 141.3274676593719 5.236121359493445
    vertex 183.62339990845885 141.14190436344666 5.236121359493445
  endloop
endfacet
facet normal 1.470775796520403e-17 1.2930160951916493e-16 -1.0
  outer loop
    vertex 183.03106944287347 122.66899176193657 5.236121359493445
    vertex 183.62339990845885 141.14190436344666 5.236121359493445
    vertex 184.18422713465773 122.92598079872576 5.236121359493445
  endloop
endfacet
facet normal 1.470775796520403e-17 1.2930160951916493e-16 -1.0
  outer loop
    vertex 184.18422713465773 122.92598079872576 5.236121359493445
    vertex 183.62339990845885 141.14190436344666 5.236121359493445
    vertex 184.7577251095906 140.81156761824724 5.236121359493445
  endloop
endfacet
facet normal 1.470775796520403e-17 1.2930160951916493e-16 -1.0
  outer loop
    vertex 184.18422713465773 122.92598079872576 5.236121359493445
    vertex 184.7577251095906 140.81156761824724 5.236121359493445
    vertex 185.2960825666398 123.32547238252201 5.236121359493445
  endloop
endfacet
facet normal 1.470775796520403e-17 1.2930160951916493e-16 -1.0
  outer loop
    vertex 185.2960825666398 123.32547238252201 5.236121359493445
    vertex 184.7577251095906 140.81156761824724 5.236121359493445
    vertex 185.84170364526415 140.3416670315793 5.236121359493445
  endloop
endfacet
facet normal 1.470775796520403e-17 1.2930160951916493e-16 -1.0
  outer loop
    vertex 185.2960825666398 123.32547238252201 5.236121359493445
    vertex 185.84170364526415 140.3416670315793 5.236121359493445
    vertex 186.3491011144662 123.86116629240392 5.236121359493445
  endloop
endfacet
facet normal 1.470775796520403e-17 1.2930160951916493e-16 -1.0
  outer loop
    vertex 186.3491011144662 123.86116629240392 5.236121359493445
    vertex 185.84170364526415 140.3416670315793 5.236121359493445
    vertex 186.85824052643403 139.7396132163995 5.236121359493445
  endloop
endfacet
facet normal 1.470775796520403e-17 1.2930160951916493e-16 -1.0
  outer loop
    vertex 186.3491011144662 123.86116629240392 5.236121359493445
    vertex 186.85824052643403 139.7396132163995 5.236121359493445
    vertex 187.32667604659565 124.52461431540475 5.236121359493445
  endloop
endfacet
facet normal 1.470775796520403e-17 1.2930160951916493e-16 -1.0
  outer loop
    vertex 187.32667604659565 124.52461431540475 5.236121359493445
    vertex 186.85824052643403 139.7396132163995 5.236121359493445
    vertex 187.79130435923514 139.0149009210227 5.236121359493445
  endloop
endfacet
facet normal 1.470775796520403e-17 1.2930160951916493e-16 -1.0
  outer loop
    vertex 187.32667604659565 124.52461431540475 5.236121359493445
    vertex 187.79130435923514 139.0149009210227 5.236121359493445
    vertex 188.21339042237335 125.30535347987706 5.236121359493445
  endloop
endfacet
facet normal 1.470775796520403e-17 1.2930160951916493e-16 -1.0
  outer loop
    vertex 188.21339042237335 125.30535347987706 5.236121359493445
    vertex 187.79130435923514 139.0149009210227 5.236121359493445
    vertex 188.62618016963842 138.17895929126925 5.236121359493445
  endloop
endfacet
facet normal 1.470775796520403e-17 1.2930160951916493e-16 -1.0
  outer loop
    vertex 188.21339042237335 125.30535347987706 5.236121359493445
    vertex 188.62618016963842 138.17895929126925 5.236121359493445
    vertex 188.99526022639552 126.19107106280605 5.236121359493445
  endloop
endfacet
facet normal 1.470775796520403e-17 1.2930160951916493e-16 -1.0
  outer loop
    vertex 188.99526022639552 126.19107106280605 5.236121359493445
    vertex 188.62618016963842 138.17895929126925 5.236121359493445
    vertex 189.34970146738328 137.24497162600755 5.236121359493445
  endloop
endfacet
facet normal 1.470775796520403e-17 1.2930160951916493e-16 -1.0
  outer loop
    vertex 188.99526022639552 126.19107106280605 5.236121359493445
    vertex 189.34970146738328 137.24497162600755 5.236121359493445
    vertex 189.6599549047867 127.16779876880712 5.236121359493445
  endloop
endfacet
facet normal 1.470775796520403e-17 1.2930160951916493e-16 -1.0
  outer loop
    vertex 189.6599549047867 127.16779876880712 5.236121359493445
    vertex 189.34970146738328 137.24497162600755 5.236121359493445
    vertex 189.95045788939387 136.227667468656 5.236121359493445
  endloop
endfacet
facet normal 1.470775796520403e-17 1.2930160951916493e-16 -1.0
  outer loop
    vertex 189.6599549047867 127.16779876880712 5.236121359493445
    vertex 189.95045788939387 136.227667468656 5.236121359493445
    vertex 190.19699182539895 128.22013301848773 5.236121359493445
  endloop
endfacet
facet normal 1.470775796520403e-17 1.2930160951916493e-16 -1.0
  outer loop
    vertex 190.19699182539895 128.22013301848773 5.236121359493445
    vertex 189.95045788939387 136.227667468656 5.236121359493445
    vertex 190.41897514802022 135.14309031348407 5.236121359493445
  endloop
endfacet
facet normal 1.470775796520403e-17 1.2930160951916493e-16 -1.0
  outer loop
    vertex 190.19699182539895 128.22013301848773 5.236121359493445
    vertex 190.41897514802022 135.14309031348407 5.236121359493445
    vertex 190.59790159518406 129.33147787209634 5.236121359493445
  endloop
endfacet
facet normal 1.470775796520403e-17 1.2930160951916493e-16 -1.0
  outer loop
    vertex 190.59790159518406 129.33147787209634 5.236121359493445
    vertex 190.41897514802022 135.14309031348407 5.236121359493445
    vertex 190.74786444621515 134.0083445901239 5.236121359493445
  endloop
endfacet
facet normal 1.470775796520403e-17 1.2930160951916493e-16 -1.0
  outer loop
    vertex 190.59790159518406 129.33147787209634 5.236121359493445
    vertex 190.74786444621515 134.0083445901239 5.236121359493445
    vertex 190.85636162758072 130.4843067574063 5.236121359493445
  endloop
endfacet
facet normal 1.470775796520403e-17 1.2930160951916493e-16 -1.0
  outer loop
    vertex 190.85636162758072 130.4843067574063 5.236121359493445
    vertex 190.74786444621515 134.0083445901239 5.236121359493445
    vertex 190.93193900327762 132.841325916497 5.236121359493445
  endloop
endfacet
facet normal 1.470775796520403e-17 1.2930160951916493e-16 -1.0
  outer loop
    vertex 190.85636162758072 130.4843067574063 5.236121359493445
    vertex 190.93193900327762 132.841325916497 5.236121359493445
    vertex 190.96829585348146 131.66043887422973 5.236121359493445
  endloop
endfacet
facet normal 1.470775796520403e-17 1.2930160951916493e-16 -1.0
  outer loop
    vertex 179.50717289944347 122.78198484133189 5.236121359493445
    vertex 179.915274746287 123.83813461111231 5.236121359493441
    vertex 180.6739557799985 122.5964215454065 5.236121359493445
  endloop
endfacet
facet normal 1.470775796520403e-17 1.2930160951916493e-16 -1.0
  outer loop
    vertex 179.915274746287 123.83813461111231 5.236121359493441
    vertex 179.50717289944347 122.78198484133189 5.236121359493445
    vertex 179.81637332800744 124.0769037564608 5.236121359493441
  endloop
endfacet
facet normal 1.470775796520403e-17 1.2930160951916493e-16 -1.0
  outer loop
    vertex 179.81637332800744 124.0769037564608 5.236121359493441
    vertex 179.50717289944347 122.78198484133189 5.236121359493445
    vertex 179.7826398960336 124.33313461111226 5.236121359493441
  endloop
endfacet
facet normal 1.470775796520403e-17 1.2930160951916493e-16 -1.0
  outer loop
    vertex 180.6739557799985 122.5964215454065 5.236121359493445
    vertex 179.915274746287 123.83813461111231 5.236121359493441
    vertex 180.07260418265895 123.63309889773763 5.236121359493441
  endloop
endfacet
facet normal 1.470775796520403e-17 1.2930160951916493e-16 -1.0
  outer loop
    vertex 180.6739557799985 122.5964215454065 5.236121359493445
    vertex 180.07260418265895 123.63309889773763 5.236121359493441
    vertex 180.27763989603363 123.47576946136569 5.236121359493441
  endloop
endfacet
facet normal 1.470775796520403e-17 1.2930160951916493e-16 -1.0
  outer loop
    vertex 180.6739557799985 122.5964215454065 5.236121359493445
    vertex 180.27763989603363 123.47576946136569 5.236121359493441
    vertex 180.51640904138208 123.37686804308608 5.236121359493441
  endloop
endfacet
facet normal 1.470775796520403e-17 1.2930160951916493e-16 -1.0
  outer loop
    vertex 180.6739557799985 122.5964215454065 5.236121359493445
    vertex 180.51640904138208 123.37686804308608 5.236121359493441
    vertex 180.77263989603355 123.34313461111225 5.236121359493441
  endloop
endfacet
facet normal 1.470775796520403e-17 1.2930160951916493e-16 -1.0
  outer loop
    vertex 180.6739557799985 122.5964215454065 5.236121359493445
    vertex 180.77263989603355 123.34313461111225 5.236121359493441
    vertex 181.8547954769487 122.55855814278216 5.236121359493445
  endloop
endfacet
facet normal 1.470775796520403e-17 1.2930160951916493e-16 -1.0
  outer loop
    vertex 181.8547954769487 122.55855814278216 5.236121359493445
    vertex 180.77263989603355 123.34313461111225 5.236121359493441
    vertex 181.0288707506851 123.37686804308608 5.236121359493441
  endloop
endfacet
facet normal 1.470775796520403e-17 1.2930160951916493e-16 -1.0
  outer loop
    vertex 181.8547954769487 122.55855814278216 5.236121359493445
    vertex 181.0288707506851 123.37686804308608 5.236121359493441
    vertex 181.24006572067242 123.46434786395984 5.236121359493444
  endloop
endfacet
facet normal 1.470775796520403e-17 1.2930160951916493e-16 -1.0
  outer loop
    vertex 181.8547954769487 122.55855814278216 5.236121359493445
    vertex 181.24006572067242 123.46434786395984 5.236121359493444
    vertex 181.26763989603361 123.47576946136569 5.236121359493441
  endloop
endfacet
facet normal 1.470775796520403e-17 1.2930160951916493e-16 -1.0
  outer loop
    vertex 181.8547954769487 122.55855814278216 5.236121359493445
    vertex 181.26763989603361 123.47576946136569 5.236121359493441
    vertex 181.4726756094083 123.63309889773757 5.236121359493441
  endloop
endfacet
facet normal 1.470775796520403e-17 1.2930160951916493e-16 -1.0
  outer loop
    vertex 181.8547954769487 122.55855814278216 5.236121359493445
    vertex 181.4726756094083 123.63309889773757 5.236121359493441
    vertex 181.6300050457802 123.83813461111231 5.236121359493441
  endloop
endfacet
facet normal 1.470775796520403e-17 1.2930160951916493e-16 -1.0
  outer loop
    vertex 181.8547954769487 122.55855814278216 5.236121359493445
    vertex 181.6300050457802 123.83813461111231 5.236121359493441
    vertex 181.72890646405978 124.0769037564608 5.236121359493441
  endloop
endfacet
facet normal 1.470775796520403e-17 1.2930160951916493e-16 -1.0
  outer loop
    vertex 181.8547954769487 122.55855814278216 5.236121359493445
    vertex 181.72890646405978 124.0769037564608 5.236121359493441
    vertex 181.7626398960336 124.33313461111226 5.236121359493441
  endloop
endfacet
facet normal 0.13052619222006645 0.9914448613738086 0.0
  outer loop
    vertex 180.51640904138208 123.37686804308608 5.489085677422205
    vertex 180.77263989603355 123.34313461111225 5.236121359493441
    vertex 180.51640904138208 123.37686804308608 5.236121359493441
  endloop
endfacet
facet normal 0.13052619222006645 0.9914448613738086 0.0
  outer loop
    vertex 180.77263989603355 123.34313461111225 5.236121359493441
    vertex 180.51640904138208 123.37686804308608 5.489085677422205
    vertex 180.77263989603355 123.34313461111225 5.489085677422205
  endloop
endfacet
facet normal -0.6087614290087409 0.7933533402912196 -0.0
  outer loop
    vertex 181.26763989603361 123.47576946136569 5.489085677422205
    vertex 181.4726756094083 123.63309889773757 5.236121359493441
    vertex 181.26763989603361 123.47576946136569 5.236121359493441
  endloop
endfacet
facet normal -0.6087614290087409 0.7933533402912196 -0.0
  outer loop
    vertex 181.4726756094083 123.63309889773757 5.236121359493441
    vertex 181.26763989603361 123.47576946136569 5.489085677422205
    vertex 181.4726756094083 123.63309889773757 5.489085677422205
  endloop
endfacet
facet normal -0.9914448613738072 -0.13052619222007755 0.0
  outer loop
    vertex 181.72890646405978 124.58936546576379 5.489085677422205
    vertex 181.7626398960336 124.33313461111226 5.236121359493441
    vertex 181.7626398960336 124.33313461111226 5.489085677422205
  endloop
endfacet
facet normal -0.9914448613738072 -0.13052619222007755 0.0
  outer loop
    vertex 181.7626398960336 124.33313461111226 5.236121359493441
    vertex 181.72890646405978 124.58936546576379 5.489085677422205
    vertex 181.72890646405978 124.58936546576379 5.236121359493441
  endloop
endfacet
facet normal 0.3826834323651011 0.9238795325112821 0.0
  outer loop
    vertex 180.27763989603363 123.47576946136569 5.489085677422205
    vertex 180.51640904138208 123.37686804308608 5.236121359493441
    vertex 180.27763989603363 123.47576946136569 5.236121359493441
  endloop
endfacet
facet normal 0.3826834323651011 0.9238795325112821 0.0
  outer loop
    vertex 180.51640904138208 123.37686804308608 5.236121359493441
    vertex 180.27763989603363 123.47576946136569 5.489085677422205
    vertex 180.51640904138208 123.37686804308608 5.489085677422205
  endloop
endfacet
facet normal -0.13052619222007755 0.9914448613738072 -0.0
  outer loop
    vertex 180.77263989603355 123.34313461111225 5.489085677422205
    vertex 181.0288707506851 123.37686804308608 5.236121359493441
    vertex 180.77263989603355 123.34313461111225 5.236121359493441
  endloop
endfacet
facet normal -0.13052619222007755 0.9914448613738072 -0.0
  outer loop
    vertex 181.0288707506851 123.37686804308608 5.236121359493441
    vertex 180.77263989603355 123.34313461111225 5.489085677422205
    vertex 181.0288707506851 123.37686804308608 5.489085677422205
  endloop
endfacet
facet normal -0.9914448613738086 0.13052619222006645 -0.0
  outer loop
    vertex 181.7626398960336 124.33313461111226 5.489085677422205
    vertex 181.72890646405978 124.0769037564608 5.236121359493441
    vertex 181.72890646405978 124.0769037564608 5.489085677422205
  endloop
endfacet
facet normal -0.9914448613738086 0.13052619222006645 -0.0
  outer loop
    vertex 181.72890646405978 124.0769037564608 5.236121359493441
    vertex 181.7626398960336 124.33313461111226 5.489085677422205
    vertex 181.7626398960336 124.33313461111226 5.236121359493441
  endloop
endfacet
facet normal -0.6087614290087533 -0.7933533402912101 0.0
  outer loop
    vertex 181.4726756094083 125.03317032448697 5.489085677422205
    vertex 181.26763989603361 125.19049976085884 5.236121359493441
    vertex 181.4726756094083 125.03317032448697 5.236121359493441
  endloop
endfacet
facet normal -0.6087614290087533 -0.7933533402912101 0.0
  outer loop
    vertex 181.26763989603361 125.19049976085884 5.236121359493441
    vertex 181.4726756094083 125.03317032448697 5.489085677422205
    vertex 181.26763989603361 125.19049976085884 5.489085677422205
  endloop
endfacet
facet normal -0.3826834323650692 0.9238795325112953 -2.1998748626843196e-15
  outer loop
    vertex 181.0288707506851 123.37686804308608 5.489085677422205
    vertex 181.24006572067242 123.46434786395984 5.236121359493444
    vertex 181.0288707506851 123.37686804308608 5.236121359493441
  endloop
endfacet
facet normal -0.3826834323650692 0.9238795325112953 -2.1998748626843196e-15
  outer loop
    vertex 181.24006572067242 123.46434786395984 5.236121359493444
    vertex 181.26763989603361 123.47576946136569 5.489085677422205
    vertex 181.26763989603361 123.47576946136569 5.236121359493441
  endloop
endfacet
facet normal -0.3826834323650692 0.9238795325112953 -2.1998748626843196e-15
  outer loop
    vertex 181.26763989603361 123.47576946136569 5.489085677422205
    vertex 181.24006572067242 123.46434786395984 5.236121359493444
    vertex 181.0288707506851 123.37686804308608 5.489085677422205
  endloop
endfacet
facet normal 0.9914448613738086 -0.13052619222006645 0.0
  outer loop
    vertex 179.81637332800744 124.5893654657638 5.236121359493441
    vertex 179.7826398960336 124.33313461111226 5.489085677422205
    vertex 179.7826398960336 124.33313461111226 5.236121359493441
  endloop
endfacet
facet normal 0.9914448613738086 -0.13052619222006645 0.0
  outer loop
    vertex 179.7826398960336 124.33313461111226 5.489085677422205
    vertex 179.81637332800744 124.5893654657638 5.236121359493441
    vertex 179.81637332800744 124.5893654657638 5.489085677422205
  endloop
endfacet
facet normal 0.7933533402912101 -0.6087614290087533 0.0
  outer loop
    vertex 180.07260418265895 125.03317032448697 5.236121359493441
    vertex 179.915274746287 124.82813461111232 5.489085677422205
    vertex 179.915274746287 124.82813461111232 5.236121359493441
  endloop
endfacet
facet normal 0.7933533402912101 -0.6087614290087533 0.0
  outer loop
    vertex 179.915274746287 124.82813461111232 5.489085677422205
    vertex 180.07260418265895 125.03317032448697 5.236121359493441
    vertex 180.07260418265895 125.03317032448697 5.489085677422205
  endloop
endfacet
facet normal 0.9238795325112821 -0.3826834323651011 0.0
  outer loop
    vertex 179.915274746287 124.82813461111232 5.236121359493441
    vertex 179.81637332800744 124.5893654657638 5.489085677422205
    vertex 179.81637332800744 124.5893654657638 5.236121359493441
  endloop
endfacet
facet normal 0.9238795325112821 -0.3826834323651011 0.0
  outer loop
    vertex 179.81637332800744 124.5893654657638 5.489085677422205
    vertex 179.915274746287 124.82813461111232 5.236121359493441
    vertex 179.915274746287 124.82813461111232 5.489085677422205
  endloop
endfacet
facet normal 0.7933533402912196 0.6087614290087409 0.0
  outer loop
    vertex 179.915274746287 123.83813461111231 5.236121359493441
    vertex 180.07260418265895 123.63309889773763 5.489085677422205
    vertex 180.07260418265895 123.63309889773763 5.236121359493441
  endloop
endfacet
facet normal 0.7933533402912196 0.6087614290087409 0.0
  outer loop
    vertex 180.07260418265895 123.63309889773763 5.489085677422205
    vertex 179.915274746287 123.83813461111231 5.236121359493441
    vertex 179.915274746287 123.83813461111231 5.489085677422205
  endloop
endfacet
facet normal -0.9238795325112947 -0.38268343236507063 0.0
  outer loop
    vertex 181.6300050457802 124.82813461111232 5.489085677422205
    vertex 181.72890646405978 124.58936546576379 5.236121359493441
    vertex 181.72890646405978 124.58936546576379 5.489085677422205
  endloop
endfacet
facet normal -0.9238795325112947 -0.38268343236507063 0.0
  outer loop
    vertex 181.72890646405978 124.58936546576379 5.236121359493441
    vertex 181.6300050457802 124.82813461111232 5.489085677422205
    vertex 181.6300050457802 124.82813461111232 5.236121359493441
  endloop
endfacet
facet normal -0.7933533402912101 0.6087614290087533 -0.0
  outer loop
    vertex 181.6300050457802 123.83813461111231 5.489085677422205
    vertex 181.4726756094083 123.63309889773757 5.236121359493441
    vertex 181.4726756094083 123.63309889773757 5.489085677422205
  endloop
endfacet
facet normal -0.7933533402912101 0.6087614290087533 -0.0
  outer loop
    vertex 181.4726756094083 123.63309889773757 5.236121359493441
    vertex 181.6300050457802 123.83813461111231 5.489085677422205
    vertex 181.6300050457802 123.83813461111231 5.236121359493441
  endloop
endfacet
facet normal -0.9238795325112821 0.3826834323651011 -0.0
  outer loop
    vertex 181.72890646405978 124.0769037564608 5.489085677422205
    vertex 181.6300050457802 123.83813461111231 5.236121359493441
    vertex 181.6300050457802 123.83813461111231 5.489085677422205
  endloop
endfacet
facet normal -0.9238795325112821 0.3826834323651011 -0.0
  outer loop
    vertex 181.6300050457802 123.83813461111231 5.236121359493441
    vertex 181.72890646405978 124.0769037564608 5.489085677422205
    vertex 181.72890646405978 124.0769037564608 5.236121359493441
  endloop
endfacet
facet normal -0.7933533402912196 -0.6087614290087409 0.0
  outer loop
    vertex 181.4726756094083 125.03317032448697 5.489085677422205
    vertex 181.6300050457802 124.82813461111232 5.236121359493441
    vertex 181.6300050457802 124.82813461111232 5.489085677422205
  endloop
endfacet
facet normal -0.7933533402912196 -0.6087614290087409 0.0
  outer loop
    vertex 181.6300050457802 124.82813461111232 5.236121359493441
    vertex 181.4726756094083 125.03317032448697 5.489085677422205
    vertex 181.4726756094083 125.03317032448697 5.236121359493441
  endloop
endfacet
facet normal -0.13052619222006645 -0.9914448613738086 0.0
  outer loop
    vertex 181.02887075068512 125.28940117913844 5.489085677422205
    vertex 180.77263989603355 125.32313461111225 5.236121359493441
    vertex 181.02887075068512 125.28940117913844 5.236121359493441
  endloop
endfacet
facet normal -0.13052619222006645 -0.9914448613738086 0.0
  outer loop
    vertex 180.77263989603355 125.32313461111225 5.236121359493441
    vertex 181.02887075068512 125.28940117913844 5.489085677422205
    vertex 180.77263989603355 125.32313461111225 5.489085677422205
  endloop
endfacet
endsolid charlotteadapter
